<?xml version="1.0" standalone="no"?><!DOCTYPE svg PUBLIC "-//W3C//DTD SVG 1.1//EN" "http://www.w3.org/Graphics/SVG/1.1/DTD/svg11.dtd"><svg t="1637420431235" class="icon" viewBox="0 0 1024 1024" version="1.1" xmlns="http://www.w3.org/2000/svg" p-id="5965" xmlns:xlink="http://www.w3.org/1999/xlink" width="200" height="200"><defs><style type="text/css"></style></defs><path d="M128 384h240v224H128V384z m528 256.8V896h208c17.6 0 32-14.4 32-32V640.8H656zM896 384H656v224.8h240V384zM400 480h224V128H400v352z m224 32H400v384h224V512z m32-160h240V160c0-17.6-14.4-32-32-32H656v224zM368 640H128v224c0 17.6 14.4 32 32 32h208V640z m0-288V128H160c-17.6 0-32 14.4-32 32v192h240z" p-id="5966"></path></svg>