<?xml version="1.0" standalone="no"?><!DOCTYPE svg PUBLIC "-//W3C//DTD SVG 1.1//EN" "http://www.w3.org/Graphics/SVG/1.1/DTD/svg11.dtd"><svg t="1637420310035" class="icon" viewBox="0 0 1024 1024" version="1.1" xmlns="http://www.w3.org/2000/svg" p-id="5038" xmlns:xlink="http://www.w3.org/1999/xlink" width="200" height="200"><defs><style type="text/css"></style></defs><path d="M768 576c13.6 0 24.8-8.8 29.6-22.4l97.6-318.4c6.4-20.8-8-43.2-29.6-43.2H252.8l-18.4-64L216 64H64v64h104.8l18.4 64 100 361.6c1.6 4.8 4 8.8 7.2 12l-52 83.2c-6.4 5.6-10.4 14.4-10.4 23.2 0 17.6 14.4 32 32 32h568v-64H323.2l40-64H768z" p-id="5039"></path><path d="M320 832m-64 0a64 64 0 1 0 128 0 64 64 0 1 0-128 0Z" p-id="5040"></path><path d="M768 832m-64 0a64 64 0 1 0 128 0 64 64 0 1 0-128 0Z" p-id="5041"></path></svg>