<?xml version="1.0" standalone="no"?><!DOCTYPE svg PUBLIC "-//W3C//DTD SVG 1.1//EN" "http://www.w3.org/Graphics/SVG/1.1/DTD/svg11.dtd"><svg t="1637420407605" class="icon" viewBox="0 0 1024 1024" version="1.1" xmlns="http://www.w3.org/2000/svg" p-id="5569" xmlns:xlink="http://www.w3.org/1999/xlink" width="200" height="200"><defs><style type="text/css"></style></defs><path d="M512.8 142.4L768 325.6V832H256V325.6l256.8-183.2m0-71.2c-6.4 0-12.8 1.6-18.4 5.6L104 355.2c-12.8 8.8-6.4 28.8 9.6 28.8H192v496c0 8.8 7.2 16 16 16h608c8.8 0 16-7.2 16-16V384h78.4c15.2 0 21.6-20 9.6-28.8L531.2 77.6c-5.6-4-12-6.4-18.4-6.4zM640 448H384v64h256v-64z m0 128H384v64h256v-64z m0 128H384v64h256v-64z" p-id="5570"></path></svg>