<?xml version="1.0" standalone="no"?><!DOCTYPE svg PUBLIC "-//W3C//DTD SVG 1.1//EN" "http://www.w3.org/Graphics/SVG/1.1/DTD/svg11.dtd"><svg t="1637420419042" class="icon" viewBox="0 0 1024 1024" version="1.1" xmlns="http://www.w3.org/2000/svg" p-id="5833" xmlns:xlink="http://www.w3.org/1999/xlink" width="200" height="200"><defs><style type="text/css"></style></defs><path d="M832 896V212.8c0-8.8-7.2-16-16-16H640V80c0-8.8-7.2-16-16-16H208c-8.8 0-16 7.2-16 16v816h-64v64h768v-64h-64z m-64-635.2V864H640V768h64v-64h-64v-64h64v-64h-64v-64h64v-64h-64v-64h64v-64h-64v-59.2h128zM256 128h320v736H256V128z m64 64h64v64h-64v-64z m128 0h64v64h-64v-64zM320 320h64v64h-64v-64z m128 0h64v64h-64v-64zM320 448h64v64h-64v-64z m128 0h64v64h-64v-64zM320 576h64v64h-64v-64z m128 0h64v64h-64v-64zM320 704h64v64h-64v-64z m128 0h64v64h-64v-64z" p-id="5834"></path></svg>