<?xml version="1.0" standalone="no"?><!DOCTYPE svg PUBLIC "-//W3C//DTD SVG 1.1//EN" "http://www.w3.org/Graphics/SVG/1.1/DTD/svg11.dtd"><svg t="1637420450747" class="icon" viewBox="0 0 1024 1024" version="1.1" xmlns="http://www.w3.org/2000/svg" p-id="6626" xmlns:xlink="http://www.w3.org/1999/xlink" width="200" height="200"><defs><style type="text/css"></style></defs><path d="M960 401.6V224c0-17.6-14.4-32-32-32H96c-17.6 0-32 14.4-32 32v178.4c38.4 22.4 64 63.2 64 110.4s-25.6 88.8-64 110.4V800c0 17.6 14.4 32 32 32h832c17.6 0 32-14.4 32-32V623.2c-38.4-22.4-64-63.2-64-110.4s25.6-88.8 64-111.2z m-320 47.2v64H544v64h96v64H544v96h-64v-96H384v-64h96v-64H384v-64h95.2L371.2 341.6l45.6-45.6 96 96L608 296.8l45.6 45.6-106.4 106.4H640z" p-id="6627"></path></svg>