<?xml version="1.0" standalone="no"?><!DOCTYPE svg PUBLIC "-//W3C//DTD SVG 1.1//EN" "http://www.w3.org/Graphics/SVG/1.1/DTD/svg11.dtd"><svg t="1637420443954" class="icon" viewBox="0 0 1024 1024" version="1.1" xmlns="http://www.w3.org/2000/svg" p-id="6362" xmlns:xlink="http://www.w3.org/1999/xlink" width="200" height="200"><defs><style type="text/css"></style></defs><path d="M896 256v113.6c-40 36-64 88-64 143.2 0 55.2 24 107.2 64 143.2v112H128V655.2c40-36 64-88 64-143.2 0-55.2-24-107.2-64-143.2V256h768m32-64H96c-17.6 0-32 14.4-32 32v178.4c38.4 22.4 64 63.2 64 110.4s-25.6 88.8-64 110.4V800c0 17.6 14.4 32 32 32h832c17.6 0 32-14.4 32-32V623.2c-38.4-22.4-64-63.2-64-110.4s25.6-88.8 64-110.4V224c0-17.6-14.4-32-32-32zM640 448v64H544v64h96v64H544v96h-64V640H384v-64h96v-64H384v-64h95.2L371.2 340.8l45.6-45.6 96 96L608 296l45.6 45.6L547.2 448H640z" p-id="6363"></path></svg>