<?xml version="1.0" standalone="no"?><!DOCTYPE svg PUBLIC "-//W3C//DTD SVG 1.1//EN" "http://www.w3.org/Graphics/SVG/1.1/DTD/svg11.dtd"><svg t="1637420638134" class="icon" viewBox="0 0 1024 1024" version="1.1" xmlns="http://www.w3.org/2000/svg" p-id="11512" xmlns:xlink="http://www.w3.org/1999/xlink" width="200" height="200"><defs><style type="text/css"></style></defs><path d="M640 576c0 70.4-57.6 128-128 128s-128-57.6-128-128 57.6-128 128-128 128 57.6 128 128z m320-224v480c0 35.2-28.8 64-64 64H128c-35.2 0-64-28.8-64-64V352c0-35.2 28.8-64 64-64h167.2L376 192h256l80.8 96H896c35.2 0 64 28.8 64 64zM704 576c0-106.4-85.6-192-192-192S320 469.6 320 576s85.6 192 192 192 192-85.6 192-192z" p-id="11513"></path></svg>