<?xml version="1.0" standalone="no"?><!DOCTYPE svg PUBLIC "-//W3C//DTD SVG 1.1//EN" "http://www.w3.org/Graphics/SVG/1.1/DTD/svg11.dtd"><svg t="1637420584085" class="icon" viewBox="0 0 1024 1024" version="1.1" xmlns="http://www.w3.org/2000/svg" p-id="10059" xmlns:xlink="http://www.w3.org/1999/xlink" width="200" height="200"><defs><style type="text/css"></style></defs><path d="M928 192H96c-17.6 0-32 14.4-32 32v576c0 17.6 14.4 32 32 32h832c17.6 0 32-14.4 32-32V224c0-17.6-14.4-32-32-32zM288 409.6c3.2-48 42.4-86.4 90.4-89.6 56-3.2 102.4 40.8 102.4 96 0 52.8-43.2 96-96 96-56 0.8-100.8-46.4-96.8-102.4zM576 688c0 8.8-7.2 16-16 16H208c-8.8 0-16-7.2-16-16v-48c0-64 128-96 192-96s192 32 192 96v48z m256-208H704v-32h128v32z m0-64H576v-32h256v32z m0-64H576v-32h256v32z" p-id="10060"></path></svg>