<?xml version="1.0" standalone="no"?><!DOCTYPE svg PUBLIC "-//W3C//DTD SVG 1.1//EN" "http://www.w3.org/Graphics/SVG/1.1/DTD/svg11.dtd"><svg t="1637420592377" class="icon" viewBox="0 0 1024 1024" version="1.1" xmlns="http://www.w3.org/2000/svg" p-id="10455" xmlns:xlink="http://www.w3.org/1999/xlink" width="200" height="200"><defs><style type="text/css"></style></defs><path d="M736 126.4H290.4L64.8 419.2 512 961.6l447.2-546.4L736 126.4z m-461.6 288l81.6-224h149.6l-231.2 224z m476 0l-231.2-224h148.8l82.4 224z m-18.4 32l-219.2 382.4-220-382.4h439.2z m-404.8-32l185.6-185.6 185.6 185.6H327.2z m-70.4 32l192 337.6-278.4-337.6h86.4z m512 0h82.4L580.8 776l188-329.6z m108.8-32l-91.2 0.8-85.6-224h3.2l173.6 223.2z m-556-224h3.2l-85.6 224H148.8l172.8-224z" p-id="10456"></path></svg>