<?xml version="1.0" standalone="no"?><!DOCTYPE svg PUBLIC "-//W3C//DTD SVG 1.1//EN" "http://www.w3.org/Graphics/SVG/1.1/DTD/svg11.dtd"><svg t="1637420504354" class="icon" viewBox="0 0 1024 1024" version="1.1" xmlns="http://www.w3.org/2000/svg" p-id="7815" xmlns:xlink="http://www.w3.org/1999/xlink" width="200" height="200"><defs><style type="text/css"></style></defs><path d="M800 192H640c0-70.4-57.6-128-128-128s-128 56.8-128 128H224c-17.6 0-32 14.4-32 32v704c0 17.6 14.4 32 32 32h576c17.6 0 32-14.4 32-32V224c0-17.6-14.4-32-32-32z m-288-32c17.6 0 32 14.4 32 32s-14.4 32-32 32-32-14.4-32-32 14.4-32 32-32z m160 416H544v64h128v64H544v128h-64V704H352v-64h128v-64H352v-64h82.4L352 429.6l45.6-45.6L512 498.4 626.4 384l45.6 45.6L589.6 512H672v64z" p-id="7816"></path></svg>