<?xml version="1.0" standalone="no"?><!DOCTYPE svg PUBLIC "-//W3C//DTD SVG 1.1//EN" "http://www.w3.org/Graphics/SVG/1.1/DTD/svg11.dtd"><svg t="1637420493989" class="icon" viewBox="0 0 1024 1024" version="1.1" xmlns="http://www.w3.org/2000/svg" p-id="7551" xmlns:xlink="http://www.w3.org/1999/xlink" width="200" height="200"><defs><style type="text/css"></style></defs><path d="M464 480H144c-8.8 0-16-7.2-16-16V144c0-8.8 7.2-16 16-16h320c8.8 0 16 7.2 16 16v320c0 8.8-7.2 16-16 16z m16 400V560c0-8.8-7.2-16-16-16H144c-8.8 0-16 7.2-16 16v320c0 8.8 7.2 16 16 16h320c8.8 0 16-7.2 16-16z m352-688H608v224h224V192m48-64c8.8 0 16 7.2 16 16v320c0 8.8-7.2 16-16 16H560c-8.8 0-16-7.2-16-16V144c0-8.8 7.2-16 16-16h320z m16 752V560c0-8.8-7.2-16-16-16H560c-8.8 0-16 7.2-16 16v320c0 8.8 7.2 16 16 16h320c8.8 0 16-7.2 16-16z" p-id="7552"></path></svg>