<?xml version="1.0" standalone="no"?><!DOCTYPE svg PUBLIC "-//W3C//DTD SVG 1.1//EN" "http://www.w3.org/Graphics/SVG/1.1/DTD/svg11.dtd"><svg t="1637420465842" class="icon" viewBox="0 0 1024 1024" version="1.1" xmlns="http://www.w3.org/2000/svg" p-id="6758" xmlns:xlink="http://www.w3.org/1999/xlink" width="200" height="200"><defs><style type="text/css"></style></defs><path d="M336 352h16c0 88 72 160 160 160s160-72 160-160h16v32h16.8c-10.4 82.4-75.2 148-157.6 160-7.2-8.8-18.4-14.4-30.4-14.4-21.6 0-39.2 17.6-39.2 39.2s17.6 39.2 39.2 39.2c19.2 0 35.2-14.4 38.4-32.8 96-16 170.4-93.6 181.6-191.2H768V256h-53.6C678.4 180 600.8 128 512 128s-166.4 52-202.4 128H256v128h80v-32z" p-id="6759"></path><path d="M616 586.4c-23.2 32.8-60.8 53.6-104 53.6s-80.8-21.6-104-53.6C280 608.8 128 669.6 128 768v96c0 17.6 14.4 32 32 32h704c17.6 0 32-14.4 32-32V767.2c0.8-98.4-151.2-158.4-280-180.8z" p-id="6760"></path></svg>