<?xml version="1.0" standalone="no"?><!DOCTYPE svg PUBLIC "-//W3C//DTD SVG 1.1//EN" "http://www.w3.org/Graphics/SVG/1.1/DTD/svg11.dtd"><svg t="1637420567768" class="icon" viewBox="0 0 1024 1024" version="1.1" xmlns="http://www.w3.org/2000/svg" p-id="9531" xmlns:xlink="http://www.w3.org/1999/xlink" width="200" height="200"><defs><style type="text/css"></style></defs><path d="M512 128c169.6 0 308 138.4 308 308 0 81.6-31.2 158.4-88.8 216l-4.8 4L512 869.6 298.4 656.8l-4.8-4.8c-57.6-57.6-88.8-134.4-88.8-216C204 266.4 342.4 128 512 128m0-64C306.4 64 140 230.4 140 436c0 101.6 40.8 194.4 107.2 261.6L512 960l264-263.2c66.4-67.2 107.2-159.2 107.2-261.6C884 230.4 717.6 64 512 64z m0 192c73.6 0 132.8 62.4 128 137.6-4.8 63.2-55.2 113.6-118.4 118.4-74.4 5.6-137.6-53.6-137.6-128 0-70.4 57.6-128 128-128" p-id="9532"></path></svg>