<?xml version="1.0" standalone="no"?><!DOCTYPE svg PUBLIC "-//W3C//DTD SVG 1.1//EN" "http://www.w3.org/Graphics/SVG/1.1/DTD/svg11.dtd"><svg t="1637420576602" class="icon" viewBox="0 0 1024 1024" version="1.1" xmlns="http://www.w3.org/2000/svg" p-id="9795" xmlns:xlink="http://www.w3.org/1999/xlink" width="200" height="200"><defs><style type="text/css"></style></defs><path d="M512 64C264.8 64 64 264.8 64 512s200.8 448 448 448 448-200.8 448-448S759.2 64 512 64z m311.2 223.2L576 451.2V133.6c100.8 16.8 188.8 73.6 247.2 153.6zM512 896c-212 0-384-172-384-384s172-384 384-384v442.4l344-228.8c25.6 51.2 40 108.8 40 170.4 0 212-172 384-384 384z" p-id="9796"></path></svg>