<?xml version="1.0" standalone="no"?><!DOCTYPE svg PUBLIC "-//W3C//DTD SVG 1.1//EN" "http://www.w3.org/Graphics/SVG/1.1/DTD/svg11.dtd"><svg t="1637420580359" class="icon" viewBox="0 0 1024 1024" version="1.1" xmlns="http://www.w3.org/2000/svg" p-id="9927" xmlns:xlink="http://www.w3.org/1999/xlink" width="200" height="200"><defs><style type="text/css"></style></defs><path d="M357.6 832l-255.2 56c-20 4.8-39.2-10.4-39.2-31.2V569.6c0-15.2 10.4-28 24.8-31.2L243.2 504l53.6 53.6L139.2 592c-7.2 1.6-12.8 8-12.8 16v188c0 10.4 9.6 17.6 19.2 16l192.8-42.4 12.8-3.2 12.8 2.4 306.4 60.8 210.4-47.2c7.2-1.6 12.8-8 12.8-16V580c0-10.4-9.6-17.6-19.2-16L688 606.4l-12 2.4L760 524.8l160.8-36c20-4.8 39.2 10.4 39.2 31.2v286.4c0 15.2-10.4 28-24.8 31.2L672.8 896M512 128c-115.2 0-206.4 101.6-190.4 220 5.6 41.6 26.4 80 56 109.6l0.8 0.8L512 591.2l133.6-132.8 0.8-0.8c29.6-29.6 49.6-68 56-109.6C719.2 229.6 627.2 128 512 128m0-64c141.6 0 256 114.4 256 256 0 70.4-28 133.6-74.4 180L512 681.6 330.4 500C284.8 453.6 256 390.4 256 320 256 178.4 371.2 64 512 64z m64.8 193.6c0-35.2-28.8-64-64-64s-64 28.8-64 64 28.8 64 64 64 64-28 64-64z" p-id="9928"></path></svg>