<?xml version="1.0" standalone="no"?><!DOCTYPE svg PUBLIC "-//W3C//DTD SVG 1.1//EN" "http://www.w3.org/Graphics/SVG/1.1/DTD/svg11.dtd"><svg t="1637420596599" class="icon" viewBox="0 0 1024 1024" version="1.1" xmlns="http://www.w3.org/2000/svg" p-id="10587" xmlns:xlink="http://www.w3.org/1999/xlink" width="200" height="200"><defs><style type="text/css"></style></defs><path d="M768 64H256c-35.2 0-64 28.8-64 64v768c0 35.2 28.8 64 64 64h512c35.2 0 64-28.8 64-64V128c0-35.2-28.8-64-64-64z m0 64v53.6L512 224l-256-42.4V128h512z m-512 768V213.6L512 256l256-42.4V896H256z m393.6-406.4L563.2 576H640v64H544v32h96v64H544v96h-64V736H384v-64h96v-32H384v-64h76.8L374.4 489.6l45.6-45.6L512 536.8l92-92 45.6 44.8z" p-id="10588"></path></svg>