<?xml version="1.0" standalone="no"?><!DOCTYPE svg PUBLIC "-//W3C//DTD SVG 1.1//EN" "http://www.w3.org/Graphics/SVG/1.1/DTD/svg11.dtd"><svg t="1637420603275" class="icon" viewBox="0 0 1024 1024" version="1.1" xmlns="http://www.w3.org/2000/svg" p-id="10983" xmlns:xlink="http://www.w3.org/1999/xlink" width="200" height="200"><defs><style type="text/css"></style></defs><path d="M256 604.8v-24.8l144-56V552l-67.2 24-44.8 16v0.8l44.8 16 67.2 24v27.2l-144-55.2zM536.8 472H560l-79.2 272h-23.2l79.2-272zM624 633.6l67.2-24 44.8-16V592l-44.8-16.8-67.2-24v-28l144 56v24.8l-144 56v-26.4zM864 128H160c-17.6 0-32 14.4-32 32v704c0 17.6 14.4 32 32 32h704c17.6 0 32-14.4 32-32V160c0-17.6-14.4-32-32-32z m0 736H160V352h704v512zM160 320V160h704v160H160z m96-112c-17.6 0-32 14.4-32 32s14.4 32 32 32 32-14.4 32-32-14.4-32-32-32z m96 0c-17.6 0-32 14.4-32 32s14.4 32 32 32 32-14.4 32-32-14.4-32-32-32z m96 0c-17.6 0-32 14.4-32 32s14.4 32 32 32 32-14.4 32-32-14.4-32-32-32z" p-id="10984"></path></svg>