<?xml version="1.0" standalone="no"?><!DOCTYPE svg PUBLIC "-//W3C//DTD SVG 1.1//EN" "http://www.w3.org/Graphics/SVG/1.1/DTD/svg11.dtd"><svg t="1640138315276" class="icon" viewBox="0 0 1024 1024" version="1.1" xmlns="http://www.w3.org/2000/svg" p-id="10115" xmlns:xlink="http://www.w3.org/1999/xlink" width="200" height="200"><defs><style type="text/css">@font-face { font-family: uc-nexus-iconfont; src: url("chrome-extension://pogijhnlcfmcppgimcaccdkmbedjkmhi/res/font_9qmmi8b8jsxxbt9.woff") format("woff"), url("chrome-extension://pogijhnlcfmcppgimcaccdkmbedjkmhi/res/font_9qmmi8b8jsxxbt9.ttf") format("truetype"); }
</style></defs><path d="M737.767619 374.247619L482.011429 103.862857c-13.653333-14.384762-37.302857-14.384762-50.712381 0l-108.982858 115.078095-17.798095-16.822857 108.982857-115.078095c22.918095-24.137143 63.390476-24.137143 86.064762 0l255.756191 270.384762-17.554286 16.822857z" p-id="10116"></path><path d="M679.497143 376.929524L264.045714 203.093333a35.401143 35.401143 0 0 0-47.299047 20.48l-54.857143 146.529524-22.918095-8.533333 54.857142-146.529524c5.851429-15.60381 17.310476-27.794286 32.426667-34.133333 15.11619-6.582857 31.939048-6.582857 47.055238-0.24381l415.695238 173.836191-9.508571 22.430476zM728.259048 789.211429c-6.826667 0-12.190476-5.36381-12.190477-12.190477v-24.380952c0-6.826667 5.36381-12.190476 12.190477-12.190476s12.190476 5.36381 12.190476 12.190476v24.380952c0 6.826667-5.36381 12.190476-12.190476 12.190477z m0-97.52381c-6.826667 0-12.190476-5.36381-12.190477-12.190476v-24.380953c0-6.826667 5.36381-12.190476 12.190477-12.190476s12.190476 5.36381 12.190476 12.190476v24.380953c0 6.826667-5.36381 12.190476-12.190476 12.190476z m0-97.523809c-6.826667 0-12.190476-5.36381-12.190477-12.190477v-24.380952c0-6.826667 5.36381-12.190476 12.190477-12.190476s12.190476 5.36381 12.190476 12.190476v24.380952c0 6.826667-5.36381 12.190476-12.190476 12.190477z m0-97.52381c-6.826667 0-12.190476-5.36381-12.190477-12.190476v-24.380953c0-6.826667 5.36381-12.190476 12.190477-12.190476s12.190476 5.36381 12.190476 12.190476v24.380953c0 6.826667-5.36381 12.190476-12.190476 12.190476zM592.700952 526.872381H276.72381c-6.826667 0-12.190476-5.36381-12.190477-12.190476s5.36381-12.190476 12.190477-12.190476h315.977142c6.826667 0 12.190476 5.36381 12.190477 12.190476s-5.36381 12.190476-12.190477 12.190476zM592.700952 642.194286H276.72381c-6.826667 0-12.190476-5.36381-12.190477-12.190476s5.36381-12.190476 12.190477-12.190477h315.977142c6.826667 0 12.190476 5.36381 12.190477 12.190477s-5.36381 12.190476-12.190477 12.190476zM592.700952 757.51619H276.72381c-6.826667 0-12.190476-5.36381-12.190477-12.190476s5.36381-12.190476 12.190477-12.190476h315.977142c6.826667 0 12.190476 5.36381 12.190477 12.190476s-5.36381 12.190476-12.190477 12.190476z" p-id="10117"></path><path d="M909.409524 890.148571H114.590476c-34.133333 0-61.927619-27.794286-61.927619-61.927619v-118.491428c0-6.826667 5.36381-12.190476 12.190476-12.190476 39.253333 0 70.948571-33.889524 70.948572-75.824762 0-40.96-32.426667-75.824762-70.948572-75.824762-6.826667 0-12.190476-5.36381-12.190476-12.190476v-118.491429c0-34.133333 27.794286-61.927619 61.927619-61.927619h794.819048c34.133333 0 61.927619 27.794286 61.927619 61.927619v118.491429c0 6.826667-5.36381 12.190476-12.190476 12.190476-39.253333 0-70.948571 33.889524-70.948572 75.824762 0 41.691429 31.939048 75.824762 70.948572 75.824762 6.826667 0 12.190476 5.36381 12.190476 12.190476v118.491428c0 34.133333-27.794286 61.927619-61.927619 61.927619zM77.04381 721.188571v107.032381c0 20.72381 16.822857 37.546667 37.546666 37.546667h794.819048c20.72381 0 37.546667-16.822857 37.546666-37.546667v-107.032381c-46.811429-6.339048-83.139048-48.518095-83.139047-99.230476 0-50.95619 36.327619-92.891429 83.139047-99.230476v-107.032381c0-20.72381-16.822857-37.546667-37.546666-37.546667H114.590476c-20.72381 0-37.546667 16.822857-37.546666 37.546667v107.032381c46.08 6.582857 83.139048 49.249524 83.139047 99.230476 0 50.95619-36.327619 92.891429-83.139047 99.230476z" p-id="10118"></path></svg>