<?xml version="1.0" standalone="no"?><!DOCTYPE svg PUBLIC "-//W3C//DTD SVG 1.1//EN" "http://www.w3.org/Graphics/SVG/1.1/DTD/svg11.dtd"><svg t="1639404875479" class="icon" viewBox="0 0 1045 1024" version="1.1" xmlns="http://www.w3.org/2000/svg" p-id="2736" xmlns:xlink="http://www.w3.org/1999/xlink" width="204.1015625" height="200"><defs><style type="text/css">@font-face { font-family: uc-nexus-iconfont; src: url("chrome-extension://pogijhnlcfmcppgimcaccdkmbedjkmhi/res/font_9qmmi8b8jsxxbt9.woff") format("woff"), url("chrome-extension://pogijhnlcfmcppgimcaccdkmbedjkmhi/res/font_9qmmi8b8jsxxbt9.ttf") format("truetype"); }
</style></defs><path d="M479.274667 904.853333L105.6 512.704a74.666667 74.666667 0 0 1-10.517333-89.002667l157.568-271.36A74.666667 74.666667 0 0 1 317.226667 115.2h432.256a74.666667 74.666667 0 0 1 64.576 37.162667l157.568 271.36a74.666667 74.666667 0 0 1-10.517334 89.002666L585.792 906.453333l-0.938667 0.938667a74.666667 74.666667 0 0 1-105.578666-2.56z m61.418666-43.797333l374.058667-392.512a10.666667 10.666667 0 0 0 1.493333-12.714667L758.677333 184.490667a10.666667 10.666667 0 0 0-9.216-5.312H317.205333a10.666667 10.666667 0 0 0-9.216 5.312L150.4 455.850667a10.666667 10.666667 0 0 0 1.493333 12.693333l373.696 392.149333a10.666667 10.666667 0 0 0 15.082667 0.362667z" fill="#666666" p-id="2737"></path><path d="M508.757333 639.722667a32 32 0 0 0 46.933334 2.410666l2.218666-2.410666 196.48-235.797334a32 32 0 0 0-46.933333-43.370666l-2.218667 2.389333L533.333333 569.258667l-171.904-206.293334a32 32 0 0 0-42.453333-6.08l-2.624 1.962667a32 32 0 0 0-6.058667 42.453333l1.962667 2.624 196.48 235.797334z" fill="#666666" p-id="2738"></path></svg>