<?xml version="1.0" standalone="no"?><!DOCTYPE svg PUBLIC "-//W3C//DTD SVG 1.1//EN" "http://www.w3.org/Graphics/SVG/1.1/DTD/svg11.dtd"><svg t="1639980619166" class="icon" viewBox="0 0 1024 1024" version="1.1" xmlns="http://www.w3.org/2000/svg" p-id="15860" xmlns:xlink="http://www.w3.org/1999/xlink" width="200" height="200"><defs><style type="text/css">@font-face { font-family: uc-nexus-iconfont; src: url("chrome-extension://pogijhnlcfmcppgimcaccdkmbedjkmhi/res/font_9qmmi8b8jsxxbt9.woff") format("woff"), url("chrome-extension://pogijhnlcfmcppgimcaccdkmbedjkmhi/res/font_9qmmi8b8jsxxbt9.ttf") format("truetype"); }
</style></defs><path d="M512 960c-246.784 0-448-201.216-448-448S265.216 64 512 64v61.44c-212.992 0-386.56 173.568-386.56 386.56s173.568 386.56 386.56 386.56 386.56-173.568 386.56-386.56h61.44c0 246.784-201.216 448-448 448z" p-id="15861"></path><path d="M512 94.72m-30.72 0a30.72 30.72 0 1 0 61.44 0 30.72 30.72 0 1 0-61.44 0Z" p-id="15862"></path><path d="M929.28 512m-30.72 0a30.72 30.72 0 1 0 61.44 0 30.72 30.72 0 1 0-61.44 0Z" p-id="15863"></path><path d="M645.12 506.88H378.88c-16.896 0-30.72-13.824-30.72-30.72s13.824-30.72 30.72-30.72h266.24c16.896 0 30.72 13.824 30.72 30.72s-13.824 30.72-30.72 30.72zM926.72 245.76h-235.52c-16.896 0-30.72-13.824-30.72-30.72s13.824-30.72 30.72-30.72h235.52c16.896 0 30.72 13.824 30.72 30.72s-13.824 30.72-30.72 30.72z" p-id="15864"></path><path d="M839.68 97.28v235.52c0 16.896-13.824 30.72-30.72 30.72s-30.72-13.824-30.72-30.72V97.28c0-16.896 13.824-30.72 30.72-30.72s30.72 13.824 30.72 30.72zM403.456 278.016l137.728 137.728c11.776 11.776 11.776 31.744 0 43.52s-31.744 11.776-43.52 0L359.936 321.536c-11.776-11.776-11.776-31.744 0-43.52 12.288-11.776 31.744-11.776 43.52 0z" p-id="15865"></path><path d="M482.816 415.744l137.728-137.728c11.776-11.776 31.744-11.776 43.52 0s11.776 31.744 0 43.52l-137.728 137.728c-11.776 11.776-31.744 11.776-43.52 0-11.776-12.288-11.776-31.744 0-43.52z" p-id="15866"></path><path d="M542.72 471.04v266.24c0 16.896-13.824 30.72-30.72 30.72s-30.72-13.824-30.72-30.72V471.04c0-16.896 13.824-30.72 30.72-30.72s30.72 13.824 30.72 30.72z" p-id="15867"></path><path d="M645.12 634.88H378.88c-16.896 0-30.72-13.824-30.72-30.72s13.824-30.72 30.72-30.72h266.24c16.896 0 30.72 13.824 30.72 30.72s-13.824 30.72-30.72 30.72z" p-id="15868"></path></svg>