<?xml version="1.0" standalone="no"?><!DOCTYPE svg PUBLIC "-//W3C//DTD SVG 1.1//EN" "http://www.w3.org/Graphics/SVG/1.1/DTD/svg11.dtd"><svg t="1639971435611" class="icon" viewBox="0 0 1367 1024" version="1.1" xmlns="http://www.w3.org/2000/svg" p-id="14981" xmlns:xlink="http://www.w3.org/1999/xlink" width="266.9921875" height="200"><defs><style type="text/css">@font-face { font-family: uc-nexus-iconfont; src: url("chrome-extension://pogijhnlcfmcppgimcaccdkmbedjkmhi/res/font_9qmmi8b8jsxxbt9.woff") format("woff"), url("chrome-extension://pogijhnlcfmcppgimcaccdkmbedjkmhi/res/font_9qmmi8b8jsxxbt9.ttf") format("truetype"); }
</style></defs><path d="M534.107957 0c277.617458 0 502.612018 224.852561 502.612018 502.186019 0 18.772963-15.21797 33.989934-33.989933 33.989934-18.489964 0-33.564934-14.789971-33.991934-33.136935v-0.852999c0-239.786532-194.55962-434.204152-434.488151-434.204152S99.761805 262.399488 99.761805 502.186019c0 237.368536 190.719628 430.363159 427.377165 434.203152h7.252986c18.773963 0 33.990934 15.21797 33.990934 33.990934s-15.21697 33.990934-33.989934 33.990933c-277.902457 0.143-502.897018-224.709561-502.897018-502.043019C31.495938 224.852561 256.489499 0 534.107957 0z" fill="#707070" p-id="14982"></path><path d="M433.415153 282.026449l99.554806 99.412806 98.701807-98.559807c13.226974-13.083974 34.417933-13.226974 47.786907-0.427l0.426999 0.427c13.083974 13.083974 13.225974 34.417933 0.425999 47.643906l-0.425999 0.427-97.990809 97.848809h88.319828c18.772963 0 33.989934 15.21797 33.989934 33.990933s-15.21697 33.990934-33.989934 33.990934H569.378888v52.337898h137.386732c18.772963 0 33.989934 15.21797 33.989933 33.990933s-15.21697 33.990934-33.989933 33.990934H569.378888v83.341837c0 18.631964-14.932971 33.706934-33.421935 33.991934h-0.569999c-18.629964 0-33.705934-14.933971-33.989933-33.422935v-83.909836H364.009289c-18.772963 0-33.989934-15.21897-33.989934-33.991934s15.21697-33.990934 33.989934-33.990933h137.386732v-52.337898H400.561218c-18.772963 0-33.989934-15.21797-33.989934-33.989934s15.21697-33.991934 33.989934-33.991933h83.626836l-98.844807-98.701808c-13.225974-13.226974-13.225974-34.844932 0-48.070906 13.369974-13.226974 34.844932-13.226974 48.071906 0z m661.188709 574.718878l-33.847934-19.626962c1.848996-10.38198 3.128994-20.906959 3.128994-31.857938 0-10.665979-1.137998-21.332958-3.129994-31.857938l33.849934-19.767961c13.794973-8.106984 18.629964-25.884949 10.52398-39.822922l-28.869944-50.488902c-3.839993-6.683987-10.09898-11.519978-17.493966-13.652973-7.395986-1.990996-15.35997-0.994998-21.901957 2.844995l-34.133933 19.909961c-15.928969-13.936973-34.417933-24.745952-54.328894-31.999938v-24.461952c0-16.069969-12.941975-29.154943-28.869944-29.154943h-57.742887c-16.070969 0.142-28.870944 13.083974-28.870944 29.154943v24.746952c-19.910961 7.252986-38.257925 18.061965-54.329894 31.999937L744.455546 652.798725c-6.684987-3.839993-14.506972-4.97799-21.902957-2.843994-7.394986 1.989996-13.652973 6.967986-17.492966 13.652973l-28.870944 50.488901c-7.963984 13.937973-3.270994 31.714938 10.52398 39.821923l33.849934 19.626961c-1.991996 10.523979-2.986994 21.189959-3.129994 31.856938 0 10.951979 1.279998 21.475958 3.129994 31.857938l-33.849934 19.769961c-13.794973 8.105984-18.629964 25.883949-10.52398 39.820922l28.870944 50.489902c3.839993 6.683987 10.09798 11.519978 17.492966 13.509973 7.395986 1.990996 15.35997 0.995998 21.902957-2.843994l34.132933-19.910961c15.928969 13.652973 34.132933 24.888951 54.328894 31.999937v24.745952c0 16.071969 12.941975 29.155943 28.869944 29.155943h57.742887c16.070969-0.142 28.870944-13.083974 28.870944-29.155943v-24.745952c19.910961-7.253986 38.257925-18.061965 54.329894-31.999937l34.132933 19.909961a28.781944 28.781944 0 0 0 21.901957 2.844994c7.394986-1.989996 13.652973-6.825987 17.492966-13.509973l28.870944-50.489902c8.106984-14.221972 3.412993-31.999938-10.52398-40.105921z m-70.825862-51.4849c0 14.506972-2.559995 28.301945-6.968986 41.24492l37.119928 21.048959c2.986994 1.705997 5.26199 4.549991 6.115988 7.821984 0.852998 3.412993 0.425999 6.968986-1.279998 9.954981l-13.369974 22.613956c-3.696993 6.256988-11.803977 8.389984-18.203964 4.692991l-36.976928-20.90696a132.607741 132.607741 0 0 1-72.959858 41.38692v28.728943c0 7.252986-5.973988 13.083974-13.369973 13.083975h-26.594948c-3.554993 0-6.826987-1.279998-9.386982-3.839993-2.559995-2.416995-3.981992-5.829989-3.981992-9.385981v-28.729944c-28.159945-5.545989-53.759895-20.194961-72.959858-41.385919l-36.977928 20.906959c-6.399988 3.697993-14.505972 1.563997-18.203964-4.693991l-13.368974-22.612956c-1.706997-2.986994-2.274996-6.541987-1.279997-9.95498 0.852998-3.413993 3.129994-6.257988 6.115988-7.822985l37.119927-21.048959c-4.550991-13.225974-6.969986-27.163947-6.969986-41.243919 0-14.506972 2.559995-28.301945 7.111986-41.24392l-37.119928-21.049959c-2.986994-1.705997-5.26199-4.549991-6.115988-7.821985-0.852998-3.412993-0.425999-6.967986 1.279998-9.95498l13.369974-22.612956c3.696993-6.257988 11.803977-8.391984 18.203964-4.693991l36.976928 20.906959a132.607741 132.607741 0 0 1 72.959857-41.386919v-28.728944c0-7.252986 5.973988-13.083974 13.369974-13.083974h26.594948c7.395986 0 13.368974 5.830989 13.368974 13.083974v28.729944c28.159945 5.545989 53.759895 20.194961 72.959858 41.385919l36.977927-20.906959c6.399988-3.697993 14.505972-1.563997 18.203965 4.693991l13.368974 22.612956c1.706997 2.986994 2.275996 6.541987 1.279997 9.95498-0.852998 3.413993-3.128994 6.257988-6.115988 7.822985l-37.119927 21.048959c4.124992 13.083974 6.826987 26.879948 6.826986 41.385919z" fill="#707070" p-id="14983"></path><path d="M890.65826 732.442569c-40.248921 0-72.817858 32.569936-72.817857 72.817858 0 40.249921 32.569936 72.817858 72.817857 72.817858 40.248921 0 72.817858-32.568936 72.817858-72.817858 0-40.248921-32.569936-72.817858-72.817858-72.817858z m0 97.137811c-8.674983 0-16.639968-4.692991-21.048958-12.088977a24.703952 24.703952 0 0 1 0-24.319952c4.266992-7.536985 12.373976-12.088976 21.049958-12.088977 13.367974 0 24.319953 10.809979 24.319953 24.319953 0 13.226974-10.951979 24.177953-24.319953 24.177953z" fill="#707070" p-id="14984"></path></svg>