<?xml version="1.0" standalone="no"?><!DOCTYPE svg PUBLIC "-//W3C//DTD SVG 1.1//EN" "http://www.w3.org/Graphics/SVG/1.1/DTD/svg11.dtd"><svg t="1639901196513" class="icon" viewBox="0 0 1024 1024" version="1.1" xmlns="http://www.w3.org/2000/svg" p-id="10732" xmlns:xlink="http://www.w3.org/1999/xlink" width="200" height="200"><defs><style type="text/css">@font-face { font-family: uc-nexus-iconfont; src: url("chrome-extension://pogijhnlcfmcppgimcaccdkmbedjkmhi/res/font_9qmmi8b8jsxxbt9.woff") format("woff"), url("chrome-extension://pogijhnlcfmcppgimcaccdkmbedjkmhi/res/font_9qmmi8b8jsxxbt9.ttf") format("truetype"); }
</style></defs><path d="M888.576 752.277333l-6.250667-1.258667-1.962667-6.08c-18.666667-57.194667-47.914667-106.24-86.954667-145.898667-33.045333-33.536-73.130667-60.352-119.125333-79.722667-56.490667-23.786667-107.498667-30.314667-132.885333-32.064l-10.154667-0.704 0-10.218667 0-97.770667c0-0.810667-0.085333-1.664-0.170667-2.474667l-1.344-10.346667 10.24-1.792c77.376-13.610667 133.504-80.618667 133.504-159.402667C673.493333 115.285333 601.088 42.666667 512.085333 42.666667s-161.408 72.618667-161.408 161.877333c0 78.186667 55.658667 145.152 132.416 159.168l10.090667 1.856-1.216 10.218667c-0.128 0.96-0.213333 1.877333-0.213333 2.816l0 97.728 0 10.218667-10.176 0.704c-25.493333 1.728-76.714667 8.234667-133.418667 32.106667-45.994667 19.370667-86.08 46.186667-119.125333 79.744-39.125333 39.637333-68.416 88.832-87.04 146.218667l-1.962667 5.952-6.122667 1.344C81.045333 763.989333 42.666667 811.541333 42.666667 865.728c0 63.765333 51.754667 115.626667 115.370667 115.626667 63.573333 0 115.328-51.861333 115.328-115.626667 0-50.901333-32.554667-95.274667-81.045333-110.421333l-11.072-3.456 4.053333-10.837333c32.384-86.144 91.584-148.117333 176-184.362667 49.706667-21.226667 95.594667-27.669333 118.570667-29.610667l11.84-1.002667 0 11.904 0 204.928 0 8.512-8.277333 2.112c-51.413333 12.885333-87.338667 59.029333-87.338667 112.192 0 63.765333 51.754667 115.626667 115.328 115.626667 63.594667 0 115.349333-51.861333 115.349333-115.626667 0-53.162667-35.946667-99.306667-87.338667-112.192L531.2 751.424l0-8.512 0-204.949333 0-11.904 11.84 1.002667c22.250667 1.877333 66.944 8.149333 115.968 28.778667 85.674667 36.053333 145.642667 98.496 178.24 185.6l4.010667 10.730667-10.858667 3.541333c-47.722667 15.530667-79.765333 59.733333-79.765333 110.016 0 63.765333 51.754667 115.626667 115.328 115.626667C929.578667 981.333333 981.333333 929.472 981.333333 865.706667 981.333333 810.752 942.336 763.050667 888.576 752.277333zM233.877333 865.706667c0 41.92-34.026667 76.010667-75.861333 76.010667-41.856 0-75.861333-34.112-75.861333-76.010667 0-41.941333 34.005333-76.032 75.861333-76.032C199.850667 789.674667 233.877333 823.765333 233.877333 865.706667zM390.165333 204.544c0-67.456 54.698667-122.24 121.941333-122.24 67.242667 0 121.941333 54.784 121.941333 122.24 0 67.370667-54.677333 122.218667-121.941333 122.218667C444.885333 326.762667 390.165333 271.914667 390.165333 204.544zM587.349333 865.706667c0 41.92-34.026667 76.010667-75.861333 76.010667s-75.882667-34.112-75.882667-76.010667c0-41.941333 34.048-76.032 75.882667-76.032C553.301333 789.674667 587.349333 823.765333 587.349333 865.706667zM865.962667 941.738667c-41.813333 0-75.861333-34.112-75.861333-76.010667 0-41.941333 34.026667-76.032 75.861333-76.032s75.882667 34.133333 75.882667 76.032C941.824 907.626667 907.797333 941.738667 865.962667 941.738667z" p-id="10733"></path></svg>