<?xml version="1.0" standalone="no"?><!DOCTYPE svg PUBLIC "-//W3C//DTD SVG 1.1//EN" "http://www.w3.org/Graphics/SVG/1.1/DTD/svg11.dtd"><svg t="1637791004851" class="icon" viewBox="0 0 1024 1024" version="1.1" xmlns="http://www.w3.org/2000/svg" p-id="6508" xmlns:xlink="http://www.w3.org/1999/xlink" width="200" height="200"><defs><style type="text/css"></style></defs><path d="M895.59 157.395c-125.446-5.447-245.541-47.869-356.98-126.129l-21.122-14.814-21.067 14.814c-111.371 78.247-231.478 120.682-356.133 126.102h-39.376v331.722c0 242.989 167.622 451.066 407.648 505.993l10.473 1.679 7.523-1.679c239.971-54.927 407.566-263.004 407.566-505.993v-331.722l-38.53 0.028zM746.086 381.679l-267.728 277.777c-6.718 6.198-17.285 5.789-23.498-0.928l-166.284-176.538c-6.198-6.718-5.789-17.285 0.928-23.498l4.246-3.919c6.718-6.198 17.285-5.789 23.498 0.928l150.050 159.307 250.948-260.492c6.417-6.526 16.998-6.608 23.511-0.191l4.11 4.055c6.54 6.403 6.622 16.985 0.219 23.498z" p-id="6509"></path></svg>