<?xml version="1.0" standalone="no"?><!DOCTYPE svg PUBLIC "-//W3C//DTD SVG 1.1//EN" "http://www.w3.org/Graphics/SVG/1.1/DTD/svg11.dtd"><svg t="1639396353063" class="icon" viewBox="0 0 1025 1024" version="1.1" xmlns="http://www.w3.org/2000/svg" p-id="2450" xmlns:xlink="http://www.w3.org/1999/xlink" width="200.1953125" height="200"><defs><style type="text/css">@font-face { font-family: uc-nexus-iconfont; src: url("chrome-extension://pogijhnlcfmcppgimcaccdkmbedjkmhi/res/font_9qmmi8b8jsxxbt9.woff") format("woff"), url("chrome-extension://pogijhnlcfmcppgimcaccdkmbedjkmhi/res/font_9qmmi8b8jsxxbt9.ttf") format("truetype"); }
</style></defs><path d="M179.533 923.898c-16.695 0-30.28-13.477-30.28-30.042l0-73.633c0-73.549 22.248-144.358 64.337-204.765 41.103-58.99 98.167-104.2 165.023-130.736l11.004-4.369-9.333-7.286c-52.604-41.058-82.773-102.408-82.773-168.321 0-118.071 96.718-214.131 215.602-214.131 118.88 0 215.599 96.061 215.599 214.131 0 65.911-30.169 127.261-82.773 168.321l-9.333 7.286 11.003 4.369c66.864 26.537 123.926 71.74 165.026 130.721 42.088 60.401 64.334 131.216 64.332 204.778l0 73.633c0 16.565-13.583 30.042-30.28 30.042L179.533 923.898 179.533 923.898zM513.149 518.879c-167.257 0-303.328 135.185-303.328 301.344l0 43.599 606.583 0 0-43.599C816.404 654.065 680.364 518.879 513.149 518.879L513.149 518.879zM513.114 150.692c-85.487 0-155.039 69.111-155.039 154.061 0 84.947 69.551 154.056 155.039 154.056 85.487 0 155.038-69.108 155.038-154.056C668.153 219.802 598.603 150.692 513.114 150.692L513.114 150.692zM31.28 813.44C14.585 813.44 1 799.964 1 783.402l0-56.959c0-108.049 59.671-205.87 155.726-255.289l7.884-4.057-5.977-6.55c-29.948-32.813-46.442-75.054-46.442-118.94 0-96.757 78.415-175.664 175.428-177.321-0.619 0.988-1.233 1.978-1.842 2.972-14.949 19.55-26.523 41.142-34.441 64.232-47.146 16.638-78.582 60.463-78.582 110.115 0 45.844 27.198 87.734 69.289 106.719l0.199 0.09 0.203 0.077c12.537 4.716 20.638 15.59 20.638 27.703 0 12.412-8.711 23.674-21.711 28.102l-6.939 1.647C132.611 531.483 61.556 622.148 61.556 726.443l0 26.926 35.378 0c-3.603 19.783-5.606 39.925-5.973 60.073L31.279 813.442 31.28 813.44zM934.866 813.435c-0.366-20.149-2.37-40.29-5.972-60.067l35.373 0 0-26.926c0-104.297-71.055-194.961-172.796-220.479l-7.017-1.666c-12.993-4.427-21.703-15.688-21.703-28.103 0-12.11 8.102-22.985 20.635-27.703l0.203-0.075 0.196-0.09c42.095-18.985 69.294-60.875 69.294-106.719 0-49.657-31.439-93.481-78.592-110.115-7.911-23.095-19.487-44.687-34.437-64.241-0.608-0.995-1.224-1.982-1.843-2.968 97.016 1.657 175.43 80.566 175.43 177.326 0 43.894-16.492 86.134-46.441 118.939l-5.979 6.55 7.889 4.059c96.056 49.418 155.724 147.239 155.719 255.289l0 56.96c0 16.558-13.581 30.03-30.277 30.03l-59.681 0L934.866 813.435z" p-id="2451"></path></svg>