<?xml version="1.0" standalone="no"?><!DOCTYPE svg PUBLIC "-//W3C//DTD SVG 1.1//EN" "http://www.w3.org/Graphics/SVG/1.1/DTD/svg11.dtd"><svg t="1640065544540" class="icon" viewBox="0 0 1024 1024" version="1.1" xmlns="http://www.w3.org/2000/svg" p-id="6490" xmlns:xlink="http://www.w3.org/1999/xlink" width="200" height="200"><defs><style type="text/css">@font-face { font-family: uc-nexus-iconfont; src: url("chrome-extension://pogijhnlcfmcppgimcaccdkmbedjkmhi/res/font_9qmmi8b8jsxxbt9.woff") format("woff"), url("chrome-extension://pogijhnlcfmcppgimcaccdkmbedjkmhi/res/font_9qmmi8b8jsxxbt9.ttf") format("truetype"); }
</style></defs><path d="M970.142125 887.350303c-0.271515-3.84-0.827475-9.671111-1.82303-17.260606-1.848889-14.157576-4.615758-29.853737-8.494546-46.713535-11.080404-48.122828-28.935758-96.271515-55.169292-141.433536-68.926061-118.600404-181.772929-194.314343-344.901819-206.62303 95.883636-21.837576 167.421414-107.545859 167.421415-209.945859 0-118.923636-96.504242-215.337374-215.544243-215.337373-119.04 0-215.544242 96.413737-215.544242 215.337373 0 102.412929 71.550707 188.108283 167.434343 209.958788-163.128889 12.308687-275.975758 88.048485-344.914747 206.674748-26.233535 45.16202-44.088889 93.323636-55.182223 141.459394-3.878788 16.859798-6.658586 32.568889-8.507474 46.726464-1.021414 7.848081-1.590303 13.808485-1.83596 17.635556-6.270707 48.032323 29.013333 88.177778 77.795556 88.177778h761.483636c49.027879 0 85.061818-40.572121 77.782626-88.656162zM353.570004 265.373737c0-87.22101 70.76202-157.918384 158.060606-157.918383 87.298586 0 158.060606 70.697374 158.060606 157.918383S598.916267 423.292121 511.63061 423.292121c-87.285657 0-158.060606-70.697374-158.060606-157.918384z m538.815354 653.213738H130.888792c-14.235152 0-22.794343-9.865051-20.751515-23.815758l0.193939-1.292929 0.064647-1.305859c0.025859-0.426667 0.103434-1.564444 0.271515-3.361616 0.284444-3.180606 0.698182-6.930101 1.254141-11.196768 1.616162-12.373333 4.059798-26.259394 7.511919-41.257373 9.87798-42.873535 25.755152-85.721212 48.885657-125.517576 65.512727-112.756364 175.127273-179.872323 343.311515-179.872323 168.197172 0 277.798788 67.10303 343.311515 179.820606 23.117576 39.770505 38.994747 82.605253 48.872728 125.478788 3.452121 14.985051 5.908687 28.858182 7.511919 41.244444 0.55596 4.266667 0.969697 8.016162 1.241212 11.196768 0.168081 1.797172 0.245657 2.92202 0.271515 3.361616l0.090505 1.667879 0.284444 1.64202c2.301414 13.239596-6.412929 23.208081-20.82909 23.208081z m0 0" p-id="6491"></path></svg>