<?xml version="1.0" standalone="no"?><!DOCTYPE svg PUBLIC "-//W3C//DTD SVG 1.1//EN" "http://www.w3.org/Graphics/SVG/1.1/DTD/svg11.dtd"><svg t="1639359769978" class="icon" viewBox="0 0 1024 1024" version="1.1" xmlns="http://www.w3.org/2000/svg" p-id="1634" xmlns:xlink="http://www.w3.org/1999/xlink" width="200" height="200"><defs><style type="text/css">@font-face { font-family: uc-nexus-iconfont; src: url("chrome-extension://pogijhnlcfmcppgimcaccdkmbedjkmhi/res/font_9qmmi8b8jsxxbt9.woff") format("woff"), url("chrome-extension://pogijhnlcfmcppgimcaccdkmbedjkmhi/res/font_9qmmi8b8jsxxbt9.ttf") format("truetype"); }
</style></defs><path d="M682.10176 967.70048h-77.10208c-18.29888 0-33.89952-13.50144-36.3008-31.49824-10.19904-76.09856-75.89888-133.4016-152.80128-133.4016s-142.49984 57.40032-152.80128 133.4016c-2.40128 18.00192-18.00192 31.49824-36.3008 31.49824H149.69856c-58.50112 0-105.99936-47.60064-105.99936-105.99936v-82.60096c0-16.30208 11.10016-30.80192 26.90048-35.39968 65.80224-18.80064 111.80032-79.69792 111.80032-148.3008s-45.99808-129.39776-111.80032-148.1984c-15.8976-4.50048-26.90048-19.0976-26.90048-35.39968V329.20064c0-58.50112 47.60064-105.99936 105.99936-105.99936h143.8976c0.1024 0 0.39936-0.30208 0.1024-0.90112a131.39968 131.39968 0 0 1-10.30144-51.0976c0-36.70016 14.69952-70.90176 41.40032-96.19968 26.5984-25.20064 61.59872-38.00064 98.29888-35.99872 66.60096 3.59936 121.4976 58.50112 124.99968 125.19936a130.47808 130.47808 0 0 1-10.10176 58.30144c-0.19968 0.59904 0 0.79872 0.1024 0.90112h144c58.50112 0 105.99936 47.60064 105.99936 105.99936v147.79904c0.1024 0.19968 0.30208 0.39936 0.79872 0.1024 18.60096-9.4976 38.70208-14.19776 59.60192-14.19776h0.59904c69.09952 0.30208 128.1024 56.4992 131.70176 125.39904 1.89952 36.70016-10.90048 71.59808-36.1984 98.2016s-59.40224 41.29792-96.1024 41.29792c-21.09952 0-41.29792-4.89984-60.00128-14.40256l-0.39936 0.30208v147.90144c0.00512 58.2912-47.59552 105.89184-105.99424 105.89184zM415.8976 766.40256c95.0016 0 176.19968 70.90176 188.8 164.89984h77.39904c38.4 0 69.60128-31.20128 69.60128-69.60128v-147.90144a36.52608 36.52608 0 0 1 17.50016-31.29856 36.54656 36.54656 0 0 1 35.79904-1.39776 94.848 94.848 0 0 0 43.49952 10.39872c26.5984 0 51.39968-10.5984 69.69856-29.99808 18.29888-19.3024 27.60192-44.60032 26.30144-71.30112-2.60096-49.89952-45.50144-90.7008-95.60064-90.90048h-0.39936c-15.20128 0-29.70112 3.50208-43.20256 10.30144-11.60192 5.89824-25.20064 5.4016-36.1984-1.39776a36.2752 36.2752 0 0 1-17.39776-31.20128V329.20064c0-38.4-31.20128-69.60128-69.60128-69.60128h-143.8976a36.27008 36.27008 0 0 1-30.40256-16.30208 36.96128 36.96128 0 0 1-3.2-35.00032 95.12448 95.12448 0 0 0 7.30112-42.19904c-2.60096-48.30208-42.39872-88.20224-90.5984-90.79808-26.7008-1.50016-52.10112 7.90016-71.3984 26.19904s-29.99808 43.10016-29.99808 69.80096c0 12.8 2.49856 25.29792 7.5008 37.00224 4.89984 11.60192 3.70176 24.69888-3.2 35.00032a36.4032 36.4032 0 0 1-30.40256 16.30208H149.69856c-38.4 0-69.60128 31.20128-69.60128 69.60128V411.8016c0 0.1024 0.19968 0.30208 0.59904 0.39936 81.39776 23.19872 138.19904 98.60096 138.19904 183.19872 0 84.70016-56.80128 160-138.19904 183.19872-0.39936 0.1024-0.50176 0.30208-0.59904 0.39936v82.60096c0 38.4 31.20128 69.60128 69.60128 69.60128h77.10208c12.89728-93.9008 94.10048-164.79744 189.09696-164.79744z" fill="#5D5D5D" p-id="1635"></path></svg>