<?xml version="1.0" standalone="no"?><!DOCTYPE svg PUBLIC "-//W3C//DTD SVG 1.1//EN" "http://www.w3.org/Graphics/SVG/1.1/DTD/svg11.dtd"><svg t="1639983426431" class="icon" viewBox="0 0 1170 1024" version="1.1" xmlns="http://www.w3.org/2000/svg" p-id="1980" xmlns:xlink="http://www.w3.org/1999/xlink" width="228.515625" height="200"><defs><style type="text/css">@font-face { font-family: uc-nexus-iconfont; src: url("chrome-extension://pogijhnlcfmcppgimcaccdkmbedjkmhi/res/font_9qmmi8b8jsxxbt9.woff") format("woff"), url("chrome-extension://pogijhnlcfmcppgimcaccdkmbedjkmhi/res/font_9qmmi8b8jsxxbt9.ttf") format("truetype"); }
</style></defs><path d="M1007.1205354 647.36160702v134.91964271A151.99553595 151.99553595 0 0 1 855.12500027 933.875H242.64285674a151.99553595 151.99553595 0 0 1-151.99553511-151.59375027v-164.2901781a10.0446427 10.0446427 0 0 1 10.28571377-10.28571461h47.25a10.0446427 10.0446427 0 0 1 10.2857146 10.28571461v140.74553539c0 71.95982107 35.07589297 106.95535675 107.2366073 106.95535758h564.70982107c72.16071433 0 107.27678595-34.99553567 107.27678596-106.95535758v-105.87053567h-182.53124973a75.05357135 75.05357135 0 0 1-75.09375-74.8526781V469.00892865c0-41.30357135 33.6696427-74.89285674 75.09375-74.89285758h182.53124973V265.26339298c0-71.99999973-35.11607163-106.9955354-107.27678596-106.99553624H265.18303567c-72.20089298 0-107.27678595 34.99553567-107.27678594 106.99553624v140.74553539a10.0446427 10.0446427 0 0 1-10.28571378 10.24553596H100.37053595A10.0446427 10.0446427 0 0 1 90.125 406.00892837v-164.33035674A151.9553573 151.9553573 0 0 1 242.12053595 90.125h612.44196405a151.99553595 151.99553595 0 0 1 152.0357146 151.55357163v158.06249972c27.88392864 11.7321427 46.60714325 38.7321427 47.7723208 68.98660757v109.28571433c0 30.25446405-18.96428567 58.0580354-47.25 69.34821377z m-10.125-158.625c0-22.13839325-18.32142892-40.13839297-40.78124973-40.13839297h-177.99107134c-22.50000027 0-40.82142837 17.99999973-40.82142839 40.13839297v64.60714298c0 22.13839325 18.32142892 40.13839297 40.82142839 40.13839297h177.99107134c22.45982163 0 40.78124973-18.24107163 40.78124973-40.6607146V488.73660703z m-196.23214214 74.85267892c-11.93303595 0-23.82589325-4.70089298-31.70089299-12.61607134a42.42857108 42.42857108 0 0 1-13.17857162-31.01785758c0-12.93749973 4.49999973-23.66517865 13.37946405-31.8214281 7.79464325-7.7544646 19.36607135-12.41517892 30.93750028-12.41517892 11.41071433 0 23.06249973 4.74107163 32.02232135 12.93749973 8.39732136 7.7544646 13.4196427 19.44642865 13.4196427 31.29910729 0 11.00892864-5.0625 22.90178595-13.21875028 31.05803624a46.28571405 46.28571405 0 0 1-31.66071349 12.57589269zM92.85714325 546.19196433a10.48660702 10.48660702 0 0 1-2.16964298-8.2767854L90.64732163 483.79464298a10.0446427 10.0446427 0 0 1 10.28571377-10.24553595h191.93303567l-9.44196377-9.72321433a11.24999973 11.24999973 0 0 1-3.25446404-7.4330354V374.22767893c0-4.01785675 2.20982163-7.63392864 5.78571404-9.4419646l1.80803596-0.80357135h2.69196376c4.21875 0 6.62946406 2.41071406 7.55357135 3.33482135l135.68303623 136.92857107a10.84821405 10.84821405 0 0 1-0.04017865 14.98660758l-135.64285758 136.88839242a11.57142893 11.57142893 0 0 1-7.55357135 3.33482135l-3.05357162-0.12053512-1.40624945-0.68303623a10.44642837 10.44642837 0 0 1-5.82589269-9.44196377V567.04464325c0-4.17857136 2.3705354-6.54910675 3.25446404-7.43303623l9.44196377-9.72321432H100.9330354a10.32589325 10.32589325 0 0 1-8.07589215-3.69642837z" p-id="1981"></path></svg>