<?xml version="1.0" standalone="no"?><!DOCTYPE svg PUBLIC "-//W3C//DTD SVG 1.1//EN" "http://www.w3.org/Graphics/SVG/1.1/DTD/svg11.dtd"><svg t="1640136062723" class="icon" viewBox="0 0 1024 1024" version="1.1" xmlns="http://www.w3.org/2000/svg" p-id="8181" xmlns:xlink="http://www.w3.org/1999/xlink" width="200" height="200"><defs><style type="text/css">@font-face { font-family: uc-nexus-iconfont; src: url("chrome-extension://pogijhnlcfmcppgimcaccdkmbedjkmhi/res/font_9qmmi8b8jsxxbt9.woff") format("woff"), url("chrome-extension://pogijhnlcfmcppgimcaccdkmbedjkmhi/res/font_9qmmi8b8jsxxbt9.ttf") format("truetype"); }
</style></defs><path d="M511.996928 1023.999836C448.154507 1024.329565 127.998269 544.551914 127.998269 384.000707 127.998269 171.92582 299.919994 0 511.996928 0c212.074886 0 384.002755 171.92582 384.002755 384.000707C896.001731 542.399462 574.839924 1024.329565 511.996928 1023.999836zM511.996928 63.99807c-176.730437 0-320.000589 143.2722-320.000589 320.000589 0 133.79199 266.797547 544.271337 320.000589 544.001001 52.369504 0.270336 319.998541-411.996918 319.998541-544.001001C831.997517 207.270269 688.727365 63.99807 511.996928 63.99807zM511.996928 544.001001c-88.365219 0-160.000294-71.635076-160.000294-160.000294 0-88.365219 71.635076-160.000294 160.000294-160.000294 88.365219 0 160.000294 71.635076 160.000294 160.000294C671.997222 472.365925 600.362147 544.001001 511.996928 544.001001zM511.996928 288.002578c-53.018722 0-96.002225 42.975311-96.002225 95.998129 0 53.02077 42.981455 95.996081 96.002225 95.996081s96.000177-42.975311 96.000177-95.996081C607.997105 330.977889 565.017698 288.002578 511.996928 288.002578z" p-id="8182"></path></svg>