<?xml version="1.0" standalone="no"?><!DOCTYPE svg PUBLIC "-//W3C//DTD SVG 1.1//EN" "http://www.w3.org/Graphics/SVG/1.1/DTD/svg11.dtd"><svg t="1639877624485" class="icon" viewBox="0 0 1024 1024" version="1.1" xmlns="http://www.w3.org/2000/svg" p-id="9700" xmlns:xlink="http://www.w3.org/1999/xlink" width="200" height="200"><defs><style type="text/css">@font-face { font-family: uc-nexus-iconfont; src: url("chrome-extension://pogijhnlcfmcppgimcaccdkmbedjkmhi/res/font_9qmmi8b8jsxxbt9.woff") format("woff"), url("chrome-extension://pogijhnlcfmcppgimcaccdkmbedjkmhi/res/font_9qmmi8b8jsxxbt9.ttf") format("truetype"); }
</style></defs><path d="M895.582235 290.577005c-0.002047-0.040932-0.007163-0.080841-0.00921-0.121773-0.033769-0.627287-0.092098-1.251503-0.164752-1.87265-0.019443-0.165776-0.039909-0.331551-0.061398-0.49835-0.085958-0.649799-0.186242-1.297552-0.313132-1.938142-0.001023-0.007163-0.002047-0.013303-0.00307-0.020466-0.12996-0.652869-0.288572-1.299599-0.459464-1.941212-0.041956-0.156566-0.085958-0.312108-0.12996-0.468674-0.169869-0.596588-0.353041-1.190105-0.558725-1.774413-0.016373-0.046049-0.029676-0.092098-0.046049-0.138146-0.220011-0.61603-0.465604-1.222851-0.724501-1.823532-0.069585-0.162706-0.14224-0.323365-0.214894-0.485047-0.243547-0.540306-0.500397-1.075495-0.775666-1.601474-0.035816-0.067538-0.066515-0.137123-0.102331-0.204661-0.305969-0.575098-0.636496-1.136893-0.979304-1.692548-0.095167-0.153496-0.191358-0.305969-0.289596-0.457418-0.333598-0.518816-0.678452-1.030469-1.043772-1.529843-0.032746-0.044002-0.062422-0.091074-0.095167-0.135076-0.398066-0.539282-0.820692-1.061169-1.255597-1.574868-0.107447-0.12689-0.215918-0.251733-0.325411-0.3776-0.451278-0.515746-0.913812-1.023306-1.400906-1.5104L688.452781 72.233138c-0.485047-0.485047-0.989537-0.945535-1.503237-1.393743-0.12996-0.113587-0.260943-0.227174-0.39295-0.338714-0.509606-0.430812-1.028423-0.850367-1.562589-1.245364-0.053212-0.038886-0.107447-0.074701-0.160659-0.112564-0.48914-0.357134-0.99056-0.695848-1.49812-1.022283-0.158612-0.102331-0.318248-0.203638-0.477884-0.301875-0.550539-0.339738-1.107217-0.667196-1.676176-0.970094-0.076748-0.040932-0.155543-0.076748-0.232291-0.116657-0.514723-0.26913-1.038656-0.51984-1.566682-0.759293-0.168846-0.075725-0.336668-0.151449-0.506537-0.224104-0.595564-0.255827-1.197268-0.499373-1.807159-0.717338-0.056282-0.019443-0.112564-0.036839-0.168846-0.056282-0.573051-0.200568-1.153266-0.38067-1.738597-0.547469-0.162706-0.046049-0.325411-0.092098-0.48914-0.1361-0.63752-0.169869-1.278109-0.327458-1.926886-0.456395-0.016373-0.00307-0.033769-0.005117-0.050142-0.00921-0.630357-0.124843-1.267876-0.223081-1.907443-0.308015-0.169869-0.022513-0.339738-0.044002-0.51063-0.063445-0.61296-0.070608-1.227967-0.127913-1.847068-0.161682-0.048095-0.00307-0.097214-0.008186-0.145309-0.011256-0.51063-0.025583-1.023306-0.038886-1.537006-0.038886L159.900803 63.24237c-16.95516 0-30.699186 13.744026-30.699186 30.699186l0 834.942133c0 16.954137 13.744026 30.699186 30.699186 30.699186L864.922958 959.582875c16.954137 0 30.699186-13.745049 30.699186-30.699186L895.622144 292.119127C895.622144 291.603381 895.607818 291.089681 895.582235 290.577005zM697.444573 168.05553l93.363388 93.363388-93.363388 0L697.444573 168.05553zM190.599989 898.184503 190.599989 124.640742l445.446211 0 0 167.478386c0 16.954137 13.745049 30.699186 30.699186 30.699186L834.223772 322.818313l0 575.36619L190.599989 898.184503z" p-id="9701"></path><path d="M287.332101 381.480364l197.455117 0c16.954137 0 30.699186-13.745049 30.699186-30.699186s-13.745049-30.699186-30.699186-30.699186L287.332101 320.081992c-16.954137 0-30.699186 13.745049-30.699186 30.699186S270.377964 381.480364 287.332101 381.480364z" p-id="9702"></path><path d="M287.332101 542.235628l259.913635 0c16.954137 0 30.699186-13.745049 30.699186-30.699186s-13.745049-30.699186-30.699186-30.699186L287.332101 480.837256c-16.954137 0-30.699186 13.745049-30.699186 30.699186S270.377964 542.235628 287.332101 542.235628z" p-id="9703"></path><path d="M679.258375 640.444371l-391.926274 0c-16.954137 0-30.699186 13.745049-30.699186 30.699186s13.745049 30.699186 30.699186 30.699186l391.926274 0c16.954137 0 30.699186-13.745049 30.699186-30.699186S696.212512 640.444371 679.258375 640.444371z" p-id="9704"></path></svg>