<?xml version="1.0" standalone="no"?><!DOCTYPE svg PUBLIC "-//W3C//DTD SVG 1.1//EN" "http://www.w3.org/Graphics/SVG/1.1/DTD/svg11.dtd"><svg t="1639971200847" class="icon" viewBox="0 0 1024 1024" version="1.1" xmlns="http://www.w3.org/2000/svg" p-id="14793" xmlns:xlink="http://www.w3.org/1999/xlink" width="200" height="200"><defs><style type="text/css">@font-face { font-family: uc-nexus-iconfont; src: url("chrome-extension://pogijhnlcfmcppgimcaccdkmbedjkmhi/res/font_9qmmi8b8jsxxbt9.woff") format("woff"), url("chrome-extension://pogijhnlcfmcppgimcaccdkmbedjkmhi/res/font_9qmmi8b8jsxxbt9.ttf") format("truetype"); }
</style></defs><path d="M921.6 288.085H102.4A102.4 102.4 0 0 0 0 390.485V921.6A102.4 102.4 0 0 0 102.4 1024h819.2A102.4 102.4 0 0 0 1024 921.6V390.485a102.4 102.4 0 0 0-102.4-102.4zM955.733 921.6a34.133 34.133 0 0 1-34.133 34.133H102.4A34.133 34.133 0 0 1 68.267 921.6V390.485a34.133 34.133 0 0 1 34.133-34.133h819.2a34.133 34.133 0 0 1 34.133 34.133z" p-id="14794"></path><path d="M648.533 653.995h-102.4V614.4h79.872a34.133 34.133 0 1 0 0-68.267h-33.45l49.152-50.517a34.133 34.133 0 1 0-49.152-47.787L512 530.432l-81.237-83.285a34.133 34.133 0 0 0-49.152 47.786l49.834 51.2h-33.45a34.133 34.133 0 1 0 0 68.267h79.872v40.277h-102.4a34.133 34.133 0 1 0 0 68.267h102.4v119.467a34.133 34.133 0 0 0 68.266 0V722.26h102.4a34.133 34.133 0 1 0 0-68.266z m-544.085-437.59h819.2a34.133 34.133 0 0 0 0-68.266h-819.2a34.133 34.133 0 0 0 0 68.266z m66.219-148.138h682.666a34.133 34.133 0 0 0 0-68.267H170.667a34.133 34.133 0 0 0 0 68.267z" p-id="14795"></path></svg>