<?xml version="1.0" standalone="no"?><!DOCTYPE svg PUBLIC "-//W3C//DTD SVG 1.1//EN" "http://www.w3.org/Graphics/SVG/1.1/DTD/svg11.dtd"><svg t="1639100338793" class="icon" viewBox="0 0 1024 1024" version="1.1" xmlns="http://www.w3.org/2000/svg" p-id="1278" xmlns:xlink="http://www.w3.org/1999/xlink" width="200" height="200"><defs><style type="text/css"></style></defs><path d="M329.32864 725.9136L86.34368 482.92864c-11.70432-11.70432-21.31968-37.40672-20.16256-53.92384l19.2-275.3536c0.84992-12.19584 12.30848-23.53152 24.51456-24.24832l271.14496-15.94368c16.67072-1.00352 42.42432 8.83712 54.17984 20.59264l250.01984 250.01984 28.95872-28.95872L464.1792 105.10336c-20.21376-20.224-57.04704-34.2016-85.53472-32.52224l-271.1552 15.94368c-33.00352 1.93536-60.66176 29.29664-62.96576 62.28992l-19.2 275.3536c-1.98656 28.60032 11.78624 65.46432 32.06144 85.72928l242.98496 242.98496 28.95872-28.96896zM946.13504 571.71968l-116.224-116.224-28.95872 28.95872 116.224 116.224c7.97696 7.9872 7.97696 20.98176 0 28.96896l-319.8976 319.8976a20.51072 20.51072 0 0 1-28.95872 0L441.21088 822.44608l-28.95872 28.95872 127.09888 127.09888c11.5712 11.5712 27.00288 17.95072 43.43808 17.95072s31.86688-6.37952 43.43808-17.95072l319.8976-319.8976a61.50144 61.50144 0 0 0 0.01024-86.8864z" p-id="1279"></path><path d="M238.09024 285.80864a107.84768 107.84768 0 0 0-31.7952 76.75904c0 28.99968 11.29472 56.25856 31.78496 76.75904 20.50048 20.50048 47.7696 31.7952 76.76928 31.7952s56.25856-11.29472 76.75904-31.7952a107.84768 107.84768 0 0 0 31.7952-76.75904c0-28.99968-11.29472-56.25856-31.78496-76.75904-20.50048-20.50048-47.7696-31.7952-76.76928-31.7952s-56.25856 11.29472-76.75904 31.7952z m144.35328 76.75904c0 18.05312-7.03488 35.0208-19.80416 47.79008-12.76928 12.76928-29.73696 19.80416-47.79008 19.80416s-35.03104-7.03488-47.80032-19.80416a67.14368 67.14368 0 0 1-19.79392-47.79008c0-18.05312 7.03488-35.03104 19.80416-47.80032 12.76928-12.76928 29.73696-19.80416 47.79008-19.80416s35.03104 7.03488 47.80032 19.80416a67.15392 67.15392 0 0 1 19.79392 47.80032zM236.01152 903.12704L868.7616 270.36672l28.95872 28.96896-632.75008 632.75008z" p-id="1280"></path></svg>