<?xml version="1.0" standalone="no"?><!DOCTYPE svg PUBLIC "-//W3C//DTD SVG 1.1//EN" "http://www.w3.org/Graphics/SVG/1.1/DTD/svg11.dtd"><svg t="1639914370773" class="icon" viewBox="0 0 1024 1024" version="1.1" xmlns="http://www.w3.org/2000/svg" p-id="1343" xmlns:xlink="http://www.w3.org/1999/xlink" width="200" height="200"><defs><style type="text/css"></style></defs><path d="M420.299718 364.622757C195.133445 364.622757 25.34551 286.230995 25.34551 182.30529S195.133445 0 420.299718 0s394.954208 78.367409 394.954207 182.30529-169.787935 182.317467-394.954207 182.317467z m0-316.282388c-204.259367 0-346.613839 70.623209-346.613839 133.940568s142.354472 133.940569 346.613839 133.940569 346.613839-70.623209 346.613838-133.940569-142.354472-133.940569-346.613838-133.940568zM420.299718 655.882612c-208.983816 0-374.32736-69.015922-393.164275-164.138079l47.427138-9.388016c11.920711 60.188021 147.480742 125.17355 345.737137 125.173549zM420.299718 941.784844c-224.265218 0-393.38345-78.367409-393.383451-182.305291a93.234812 93.234812 0 0 1 0.547939-10.118601l48.060311 5.187153a47.987253 47.987253 0 0 0-0.267881 4.870566c0 63.31736 141.696945 133.940569 345.043082 133.940569z" p-id="1344"></path><path d="M27.135443 198.158983h48.340369v558.154702H27.135443zM765.123623 198.158983h48.340369V361.883064h-48.340369zM734.207705 650.037932c-150.756198 0-264.435212-54.428577-264.435212-126.634719s113.679014-126.634719 264.435212-126.634719 264.435212 54.428577 264.435211 126.634719-113.715543 126.634719-264.435211 126.634719z m0-204.92907c-131.919284 0-216.094843 46.379966-216.094843 78.294351s84.175559 78.294351 216.094843 78.294351 216.094843-46.440848 216.094843-78.294351-84.187736-78.355233-216.094843-78.355233zM734.207705 838.77237c-119.608928 0-248.398873-38.879294-263.107983-113.240663l47.414962-9.400192c6.952733 35.128958 97.253029 74.276134 215.693021 74.276133 130.421585 0 209.044698-42.958393 215.632139-73.959546l47.281021 10.057719c-15.671047 73.667313-144.120052 112.266549-262.91316 112.266549zM734.207705 1024c-150.17173 0-263.412393-54.465106-263.412393-126.634719a69.685625 69.685625 0 0 1 0.389645-7.500672l48.060312 5.284564c-0.109588 34.909783 81.715923 80.534811 214.962436 80.534811s215.0842-45.625028 215.0842-78.318703l48.035959-6.416971c0.194823 2.143049 0.30441 4.273922 0.30441 6.416971 0 72.169614-113.252839 126.634719-263.424569 126.634719z" p-id="1345"></path><path d="M470.929252 533.607049h48.340369v361.676065h-48.340369zM949.145788 533.607049h48.340369v362.564943h-48.340369z" p-id="1346"></path></svg>