<?xml version="1.0" standalone="no"?><!DOCTYPE svg PUBLIC "-//W3C//DTD SVG 1.1//EN" "http://www.w3.org/Graphics/SVG/1.1/DTD/svg11.dtd"><svg t="1639968760912" class="icon" viewBox="0 0 1024 1024" version="1.1" xmlns="http://www.w3.org/2000/svg" p-id="13944" xmlns:xlink="http://www.w3.org/1999/xlink" width="200" height="200"><defs><style type="text/css">@font-face { font-family: uc-nexus-iconfont; src: url("chrome-extension://pogijhnlcfmcppgimcaccdkmbedjkmhi/res/font_9qmmi8b8jsxxbt9.woff") format("woff"), url("chrome-extension://pogijhnlcfmcppgimcaccdkmbedjkmhi/res/font_9qmmi8b8jsxxbt9.ttf") format("truetype"); }
</style></defs><path d="M289.372062 353.282139H734.499002c17.549701 0 31.797194-14.245446 31.797193-31.798217 0-17.549701-14.245446-31.797194-31.797193-31.797194H289.372062c-17.549701 0-31.797194 14.245446-31.797194 31.797194 0.001023 17.552771 14.245446 31.798217 31.797194 31.798217zM419.218362 162.252361h158.975734c26.359344 0 47.691185-21.363564 47.691186-47.689139 0-26.327622-21.366633-47.693232-47.691186-47.693232H419.218362c-26.324552 0-47.693232 21.366633-47.693232 47.693232 0 26.325575 21.36561 47.689139 47.693232 47.689139zM289.366945 670.719908c-17.549701 0-31.79617 14.245446-31.79617 31.797193s14.244422 31.797194 31.79617 31.797194h445.127963c17.549701 0 31.797194-14.245446 31.797194-31.797194s-14.245446-31.797194-31.797194-31.797193h-445.127963z" p-id="13945"></path><path d="M829.884442 98.665137H798.087249c-17.552771 0-31.800263 14.245446-31.800264 31.797194s14.248516 31.797194 31.800264 31.797193h31.797193c35.06768 0 63.587224 28.52159 63.587224 63.588247V829.952492c0 35.069727-28.520567 63.588247-63.587224 63.588247H193.986621c-35.069727 0-63.588247-28.520567-63.588247-63.588247V225.848795c0-35.06768 28.520567-63.588247 63.588247-63.588248h31.797194c17.549701 0 31.797194-14.245446 31.797193-31.797193s-14.245446-31.797194-31.797193-31.797194h-31.797194c-70.237691 0-127.178541 56.944943-127.178541 127.180588v604.104721c0 70.237691 56.942897 127.178541 127.178541 127.178541h635.896798c70.234621 0 127.178541-56.942897 127.178541-127.178541V225.845725c0.001023-70.235644-56.94392-127.180588-127.177518-127.180588z" p-id="13946"></path><path d="M734.494908 479.951073h-445.127963c-17.549701 0-31.79617 14.247492-31.79617 31.798217 0 17.551748 14.244422 31.797194 31.79617 31.797193h445.127963c17.549701 0 31.797194-14.245446 31.797194-31.797193 0-17.550725-14.245446-31.798217-31.797194-31.798217z" p-id="13947"></path></svg>