<?xml version="1.0" standalone="no"?><!DOCTYPE svg PUBLIC "-//W3C//DTD SVG 1.1//EN" "http://www.w3.org/Graphics/SVG/1.1/DTD/svg11.dtd"><svg t="1638790117488" class="icon" viewBox="0 0 1025 1024" version="1.1" xmlns="http://www.w3.org/2000/svg" p-id="2014" xmlns:xlink="http://www.w3.org/1999/xlink" width="200.1953125" height="200"><defs><style type="text/css">@font-face { font-family: uc-nexus-iconfont; src: url("chrome-extension://pogijhnlcfmcppgimcaccdkmbedjkmhi/res/font_9qmmi8b8jsxxbt9.woff") format("woff"), url("chrome-extension://pogijhnlcfmcppgimcaccdkmbedjkmhi/res/font_9qmmi8b8jsxxbt9.ttf") format("truetype"); }
</style></defs><path d="M266.197333 980.181333a52.352 52.352 0 0 1-28.544-7.765333 58.368 58.368 0 0 1-24.277333-41.557333L54.570667 456.448a136.789333 136.789333 0 0 1 1.024-115.2l109.141333-192a87.936 87.936 0 0 1 98.133333-36.949333l201.173334 86.613333a144.128 144.128 0 0 1 72.533333 86.826667l159.616 476.885333a68.266667 68.266667 0 0 1-1.152 51.456 63.701333 63.701333 0 0 1-38.4 32.768l-360.832 127.786667a87.722667 87.722667 0 0 1-29.610667 5.546666z m-27.818666-810.666666a29.098667 29.098667 0 0 0-23.296 12.202666l-109.141334 192a87.936 87.936 0 0 0 4.906667 62.890667l160.810667 481.536a43.349333 43.349333 0 0 0 4.821333-1.408l360.789333-127.786667a21.888 21.888 0 0 0 4.266667-2.005333 18.56 18.56 0 0 1-1.493333-4.266667L480.384 305.792a91.776 91.776 0 0 0-36.906667-49.493333L242.304 169.770667c0.384 0.128-1.578667-0.170667-3.882667-0.170667z" p-id="2015"></path><path d="M787.626667 763.989333a83.626667 83.626667 0 0 1-37.077334-9.301333l-126.976-53.376a30.976 30.976 0 0 1-16.298666-39.936 29.866667 29.866667 0 0 1 38.826666-16.725333l128.469334 54.101333c7.893333 3.84 13.312 4.821333 16.554666 3.370667l5.077334-10.24 28.629333-50.602667 139.733333-277.333333a16.384 16.384 0 0 0 0.810667-12.117334l-4.522667-2.901333-448.64-212.266667a128.384 128.384 0 0 0-75.648-8.533333L297.813333 176.170667a29.44 29.44 0 0 1-37.674666-19.2 30.762667 30.762667 0 0 1 18.688-38.784l138.538666-48a184.746667 184.746667 0 0 1 114.816 8.533333l3.285334 1.322667 448.938666 212.437333a62.037333 62.037333 0 0 1 35.712 35.157333 78.976 78.976 0 0 1-2.389333 63.488l-140.8 279.552-28.544 50.688a62.464 62.464 0 0 1-34.133333 37.034667 66.730667 66.730667 0 0 1-26.624 5.589333z" p-id="2016"></path><path d="M299.776 402.261333a45.354667 45.354667 0 0 1-14.805333 2.474667 46.592 46.592 0 0 1-44.672-32.597333 49.322667 49.322667 0 0 1 1.28-37.290667 47.530667 47.530667 0 0 1 27.605333-24.149333 44.672 44.672 0 0 1 59.733333 30.08 48.768 48.768 0 0 1-29.141333 61.482666z" p-id="2017"></path></svg>