<?xml version="1.0" standalone="no"?><!DOCTYPE svg PUBLIC "-//W3C//DTD SVG 1.1//EN" "http://www.w3.org/Graphics/SVG/1.1/DTD/svg11.dtd"><svg t="1637802929179" class="icon" viewBox="0 0 1024 1024" version="1.1" xmlns="http://www.w3.org/2000/svg" p-id="7655" xmlns:xlink="http://www.w3.org/1999/xlink" width="200" height="200"><defs><style type="text/css"></style></defs><path d="M594.24 256a42.688 42.688 0 0 1 0-85.312h259.072a42.688 42.688 0 1 1 0 85.312H594.24z m0 426.688a42.688 42.688 0 0 1 0-85.376h259.072a42.688 42.688 0 0 1 0 85.376H594.24z m0-256a42.688 42.688 0 0 1 0-85.376h259.072a42.688 42.688 0 0 1 0 85.376H594.24z m0 426.624a42.688 42.688 0 1 1 0-85.312h259.072a42.688 42.688 0 0 1 0 85.312H594.24z" p-id="7656"></path><path d="M307.2 537.6a179.2 179.2 0 1 1 0 358.4 179.2 179.2 0 0 1 0-358.4z m0 85.312a93.888 93.888 0 1 0 0 187.776 93.888 93.888 0 0 0 0-187.776zM307.2 128a179.2 179.2 0 1 1 0 358.4 179.2 179.2 0 0 1 0-358.4z m0 85.312a93.888 93.888 0 1 0 0 187.776 93.888 93.888 0 0 0 0-187.776z" p-id="7657"></path></svg>