<?xml version="1.0" standalone="no"?><!DOCTYPE svg PUBLIC "-//W3C//DTD SVG 1.1//EN" "http://www.w3.org/Graphics/SVG/1.1/DTD/svg11.dtd"><svg t="1637761788846" class="icon" viewBox="0 0 1024 1024" version="1.1" xmlns="http://www.w3.org/2000/svg" p-id="4659" xmlns:xlink="http://www.w3.org/1999/xlink" width="200" height="200"><defs><style type="text/css"></style></defs><path d="M91.648 480.768c-11.776 0-22.016-7.68-25.088-19.456-3.584-13.824 5.12-27.648 18.944-30.72L932.864 225.28c13.824-3.072 27.648 5.12 30.72 18.944 3.584 13.824-5.12 27.648-18.944 30.72L97.792 480.256c-2.048 0.512-4.096 0.512-6.144 0.512z" p-id="4660"></path><path d="M517.12 965.12c-14.336 0-25.6-11.264-25.6-25.6V128.512c0-14.336 11.264-25.6 25.6-25.6s25.6 11.264 25.6 25.6v811.008c0 14.336-11.264 25.6-25.6 25.6z" p-id="4661"></path><path d="M747.008 965.12H268.8c-14.336 0-25.6-11.264-25.6-25.6s11.264-25.6 25.6-25.6h478.208c14.336 0 25.6 11.264 25.6 25.6s-11.264 25.6-25.6 25.6zM254.976 680.96H43.52c-14.336 0-25.6-11.264-25.6-25.6s11.264-25.6 25.6-25.6h211.456c14.336 0 25.6 11.264 25.6 25.6s-11.264 25.6-25.6 25.6z" p-id="4662"></path><path d="M146.432 680.96c-14.336 0-25.6-11.264-25.6-25.6V389.12c0-14.336 11.264-25.6 25.6-25.6s25.6 11.264 25.6 25.6v266.24c0 14.336-11.264 25.6-25.6 25.6zM993.28 493.056h-211.456c-14.336 0-25.6-11.264-25.6-25.6s11.264-25.6 25.6-25.6H993.28c14.336 0 25.6 11.264 25.6 25.6s-11.264 25.6-25.6 25.6z" p-id="4663"></path><path d="M884.224 493.056c-14.336 0-25.6-11.264-25.6-25.6v-266.24c0-14.336 11.264-25.6 25.6-25.6s25.6 11.264 25.6 25.6v266.24c0 14.336-11.264 25.6-25.6 25.6zM692.736 849.92h-332.8c-14.336 0-25.6-11.264-25.6-25.6s11.264-25.6 25.6-25.6h332.8c14.336 0 25.6 11.264 25.6 25.6s-11.264 25.6-25.6 25.6z" p-id="4664"></path></svg>