<?xml version="1.0" standalone="no"?><!DOCTYPE svg PUBLIC "-//W3C//DTD SVG 1.1//EN" "http://www.w3.org/Graphics/SVG/1.1/DTD/svg11.dtd"><svg t="1651133259394" class="icon" viewBox="0 0 1024 1024" version="1.1" xmlns="http://www.w3.org/2000/svg" p-id="3447" xmlns:xlink="http://www.w3.org/1999/xlink" width="300" height="300"><defs><style type="text/css">@font-face { font-family: uc-nexus-iconfont; src: url("chrome-extension://pogijhnlcfmcppgimcaccdkmbedjkmhi/res/font_9qmmi8b8jsxxbt9.woff") format("woff"), url("chrome-extension://pogijhnlcfmcppgimcaccdkmbedjkmhi/res/font_9qmmi8b8jsxxbt9.ttf") format("truetype"); }
@font-face { font-family: feedback-iconfont; src: url("//at.alicdn.com/t/font_1031158_u69w8yhxdu.woff2?t=1630033759944") format("woff2"), url("//at.alicdn.com/t/font_1031158_u69w8yhxdu.woff?t=1630033759944") format("woff"), url("//at.alicdn.com/t/font_1031158_u69w8yhxdu.ttf?t=1630033759944") format("truetype"); }
</style></defs><path d="M704 192a106.666667 106.666667 0 0 1 106.666667 106.666667v469.333333a106.666667 106.666667 0 0 1-106.666667 106.666667H320a106.666667 106.666667 0 0 1-106.666667-106.666667V298.666667a106.666667 106.666667 0 0 1 106.666667-106.666667 21.333333 21.333333 0 1 0 0-42.666667 149.333333 149.333333 0 0 0-149.333333 149.333334v469.333333a149.333333 149.333333 0 0 0 149.333333 149.333333h384a149.333333 149.333333 0 0 0 149.333333-149.333333V298.666667a149.333333 149.333333 0 0 0-149.333333-149.333334 21.333333 21.333333 0 0 0 0 42.666667z" p-id="3448"></path><path d="M320 554.666667a21.333333 21.333333 0 0 1 0-42.666667h384a21.333333 21.333333 0 0 1 0 42.666667H320z m0-128a21.333333 21.333333 0 0 1 0-42.666667h384a21.333333 21.333333 0 0 1 0 42.666667H320z m0 256a21.333333 21.333333 0 0 1 0-42.666667h384a21.333333 21.333333 0 0 1 0 42.666667H320zM405.333333 192h213.333334a21.333333 21.333333 0 0 0 0-42.666667H405.333333a21.333333 21.333333 0 0 0 0 42.666667z" p-id="3449"></path></svg>