<?xml version="1.0" standalone="no"?><!DOCTYPE svg PUBLIC "-//W3C//DTD SVG 1.1//EN" "http://www.w3.org/Graphics/SVG/1.1/DTD/svg11.dtd"><svg t="1648565938928" class="icon" viewBox="0 0 1024 1024" version="1.1" xmlns="http://www.w3.org/2000/svg" p-id="1943" xmlns:xlink="http://www.w3.org/1999/xlink" width="200" height="200"><defs><style type="text/css">@font-face { font-family: uc-nexus-iconfont; src: url("chrome-extension://pogijhnlcfmcppgimcaccdkmbedjkmhi/res/font_9qmmi8b8jsxxbt9.woff") format("woff"), url("chrome-extension://pogijhnlcfmcppgimcaccdkmbedjkmhi/res/font_9qmmi8b8jsxxbt9.ttf") format("truetype"); }
@font-face { font-family: feedback-iconfont; src: url("//at.alicdn.com/t/font_1031158_u69w8yhxdu.woff2?t=1630033759944") format("woff2"), url("//at.alicdn.com/t/font_1031158_u69w8yhxdu.woff?t=1630033759944") format("woff"), url("//at.alicdn.com/t/font_1031158_u69w8yhxdu.ttf?t=1630033759944") format("truetype"); }
</style></defs><path d="M529.78217 48.576307c-246.72 0-446.726246 200.000102-446.726246 446.709965 0 246.709965 200.006246 446.708941 446.726246 446.708941 246.721024 0 446.72727-199.999078 446.72727-446.708941C976.50944 248.577434 776.503296 48.576307 529.78217 48.576307zM408.385536 724.046438c-18.950349 0-34.317005-15.361843-34.317005-34.314547 0-18.95465 15.366554-34.317619 34.317005-34.317619 18.954445 0 34.317005 15.362867 34.317005 34.317619C442.703462 708.684595 427.339981 724.046438 408.385536 724.046438zM618.101248 733.695181c-26.059571 0-47.186534-21.126144-47.186534-47.185715 0-26.058445 21.12809-47.180595 47.186534-47.180595 26.060595 0 47.18551 21.123072 47.18551 47.180595C665.286758 712.569037 644.160819 733.695181 618.101248 733.695181zM827.649126 316.21591c0 13.335757-11.555635 24.146944-25.809818 24.146944l-81.197557 0-92.148429 261.262336c-3.498803 10.746778-13.894042 17.305088-24.741478 16.469094-0.674406 0.052224-1.354957 0.101274-2.046669 0.101274L354.153156 618.195558c-13.877658 0-25.126298-10.814259-25.126298-24.148992l0-7.469112c0-13.334733 11.24864-24.150016 25.126298-24.150016l229.050895 0 12.21673-34.625638L312.42409 527.8018c-13.336269 0-24.148992-10.810163-24.148992-24.147968l0-7.467065c0-13.337805 10.812723-24.148992 24.148992-24.148992l302.330807 0c0.109466 0 0.216986 0.016384 0.324403 0.017408l11.920998-33.794662L286.686884 438.26052c-13.338317 0-24.148992-10.811187-24.148992-24.147968l0-7.469112c0-13.335757 10.810675-24.147968 24.148992-24.147968l359.982147 0 28.983296-82.167398c3.146752-9.680486 11.899494-15.965594 21.52919-16.505958 1.252557-0.17705 2.522522-0.296755 3.827302-0.296755l100.829468 0c14.254182 0 25.809818 10.810163 25.809818 24.147968L827.648106 316.215942z" p-id="1944"></path></svg>