<?xml version="1.0" standalone="no"?><!DOCTYPE svg PUBLIC "-//W3C//DTD SVG 1.1//EN" "http://www.w3.org/Graphics/SVG/1.1/DTD/svg11.dtd"><svg t="1638950670819" class="icon" viewBox="0 0 1024 1024" version="1.1" xmlns="http://www.w3.org/2000/svg" p-id="1602" xmlns:xlink="http://www.w3.org/1999/xlink" width="200" height="200"><defs><style type="text/css">@font-face { font-family: uc-nexus-iconfont; src: url("chrome-extension://pogijhnlcfmcppgimcaccdkmbedjkmhi/res/font_9qmmi8b8jsxxbt9.woff") format("woff"), url("chrome-extension://pogijhnlcfmcppgimcaccdkmbedjkmhi/res/font_9qmmi8b8jsxxbt9.ttf") format("truetype"); }
</style></defs><path d="M515.02 373.596h-16.194v204.688H769.531v-16.19H515.02V373.596z m0-244.956V81.782h37.853v-16.19h-91.899v16.19h37.857v46.858C265.027 132.956 76.826 323.825 76.826 558.659c0 237.537 192.558 430.1 430.095 430.1 237.537 0 430.1-192.563 430.1-430.1 0-234.834-188.206-425.703-422-430.019z m368.047 430.019c0 50.8-9.938 100.06-29.543 146.396-18.944 44.784-46.07 85.012-80.634 119.577-34.56 34.56-74.788 61.686-119.573 80.625-46.336 19.6-95.595 29.547-146.396 29.547s-100.055-9.943-146.391-29.547c-44.785-18.939-85.013-46.065-119.578-80.625-34.56-34.565-61.69-74.793-80.635-119.577-19.599-46.347-29.537-95.596-29.537-146.396s9.938-100.055 29.537-146.397c18.944-44.784 46.07-85.012 80.635-119.577s74.793-61.691 119.578-80.635c46.336-19.6 95.59-29.537 146.391-29.537s100.06 9.938 146.396 29.537c44.785 18.944 85.013 46.07 119.573 80.635 34.565 34.56 61.69 74.793 80.634 119.577 19.6 46.342 29.543 95.596 29.543 146.397z m11.848-270.895l44.216-30.93a529.885 529.885 0 0 0-135-133.575c-52.658-36.02-112.224-62.746-176.291-77.783l-12.329 52.531c57.457 13.491 110.874 37.453 158.162 69.786a476.015 476.015 0 0 1 121.242 119.971zM237.05 169.948c45.972-31.984 97.864-56.008 153.697-70.103L377.544 47.53c-62.26 15.713-120.105 42.501-171.31 78.12A529.946 529.946 0 0 0 74.71 256.836l44.216 30.93a475.896 475.896 0 0 1 118.124-117.817z" p-id="1603"></path></svg>